<svg id="Capa_1" enable-background="new 0 0 512.304 512.304" height="512" viewBox="0 0 512.304 512.304" width="512" xmlns="http://www.w3.org/2000/svg"><g><path d="m301.718 309.371-89.043-30.458h-87.705l-89.043 30.458c-16.686 5.708-27.897 21.392-27.897 39.027v156.407h321.586v-156.407c-.001-17.635-11.212-33.319-27.898-39.027z" fill="#eaf6ff"/><path d="m154.967 278.914-89.04 30.46c-16.69 5.71-27.9 21.39-27.9 39.02v156.41h-30v-156.41c0-17.63 11.21-33.31 27.9-39.02l89.04-30.46z" fill="#d8ecfe"/><path d="m412.559 424.61h-4.038c-9.272 0-16.789-7.517-16.789-16.789v-104.722h37.617v104.722c0 9.272-7.517 16.789-16.79 16.789z" fill="#365e7d"/><path d="m419.537 423.094c-2.12.98-4.49 1.52-6.98 1.52h-4.04c-9.27 0-16.78-7.52-16.78-16.79v-104.72h18v104.72c0 6.78 4.02 12.62 9.8 15.27z" fill="#2b4d66"/><path d="m212.707 205.824v73.15l-43.88 33.04-43.88-33.04v-39.2l.02-33.95z" fill="#ffcebf"/><path d="m183.827 300.724-15 11.29-43.88-33.04v-39.2l.02-33.95h30l-.02 33.95v39.2z" fill="#ffb09e"/><path d="m124.943 278.97 43.879 33.04-62.124 37.956v-64.802z" fill="#9bd8f9"/><path d="m212.702 278.97-43.88 33.04 62.125 37.956v-64.802z" fill="#9bd8f9"/><path d="m212.707 205.824v56.74c-11.58 5.49-24.51 8.55-38.14 8.55h-11.49c-13.63 0-26.56-3.06-38.13-8.54v-22.8l.02-33.95z" fill="#ffb09e"/><path d="m93.575 90.298v91.311c0 38.386 31.118 69.504 69.504 69.504h11.488c38.386 0 69.504-31.118 69.504-69.504v-91.311c0-11.755-9.53-21.285-21.285-21.285h-107.927c-11.755 0-21.284 9.529-21.284 21.285z" fill="#ffeee6"/><path d="m178.827 250.984c-1.41.09-2.83.13-4.26.13h-11.49c-38.38 0-69.5-31.12-69.5-69.5v-91.32c0-11.75 9.53-21.28 21.28-21.28h20c-11.75 0-21.28 9.53-21.28 21.28v91.32c0 36.95 28.85 67.18 65.25 69.37z" fill="#ffdfcf"/><path d="m244.07 108.925h15.061c11.541 0 20.897 9.356 20.897 20.897v15.659c0 11.541-9.356 20.897-20.897 20.897h-15.061z" fill="#ffcebf"/><path d="m168.822 312.014-31.062 18.974 15.531 27.62h31.063l15.531-27.62z" fill="#f25a74"/><path d="m157.757 330.984 15.53 27.62h-20l-15.53-27.62 31.07-18.97 10 6.11z" fill="#e83d5a"/><path d="m153.291 358.608-15.531 146.196h62.125l-15.531-146.196z" fill="#f25a74"/><path d="m173.287 358.604-15.53 146.2h-20l15.53-146.2z" fill="#e83d5a"/><path d="m93.575 108.925h-15.061c-11.541 0-20.897 9.356-20.897 20.897v15.659c0 11.541 9.356 20.897 20.897 20.897h15.061z" fill="#ffcebf"/><path d="m263.205 108.925-23.43-19.763c-13.36-11.269-32.915-11.209-46.205.143-13.259 11.325-32.758 11.415-46.121.213-13.437-11.322-32.952-12.167-46.668-.669l-23.95 20.076v-39.425c0-34.242 27.758-62 62-62h62.374c34.242 0 62 27.758 62 62z" fill="#fff"/><path d="m263.205 108.925-23.43-19.763c-13.36-11.269-32.915-11.209-46.205.143-13.259 11.325-32.758 11.415-46.121.213-13.437-11.322-32.952-12.167-46.668-.669l-23.95 20.076v-39.425c0-34.242 27.758-62 62-62h62.374c34.242 0 62 27.758 62 62z" fill="#365e7d"/><path d="m168.827 7.504c-34.24 0-62 27.75-62 62v15.26c-2.11 1.12-4.14 2.49-6.05 4.09l-23.95 20.07v-39.42c0-34.25 27.76-62 62-62h30z" fill="#2b4d66"/><ellipse cx="410.541" cy="181.731" fill="#9bd8f9" rx="93.734" ry="93.735" transform="matrix(.23 -.973 .973 .23 139.348 539.536)"/><path d="m420.537 274.934c-3.29.35-6.62.53-10 .53-51.68 0-93.73-42.05-93.73-93.73 0-51.69 42.05-93.74 93.73-93.74 3.38 0 6.71.18 10 .53-47 5.01-83.73 44.9-83.73 93.21 0 48.3 36.73 88.19 83.73 93.2z" fill="#73c3f9"/><path d="m410.541 240.402c-32.352 0-58.671-26.319-58.671-58.671 0-32.351 26.319-58.67 58.671-58.67 32.351 0 58.67 26.319 58.67 58.67s-26.32 58.671-58.67 58.671z" fill="#eaf6ff"/><g><path d="m304.145 302.277-83.942-28.716v-29.977c21.642-15.98 31.368-36.281 31.364-69.706h7.564c15.658 0 28.397-12.739 28.397-28.397v-15.659c0-11.537-6.92-21.483-16.824-25.922v-34.4c0-38.322-31.178-69.5-69.5-69.5h-62.373c-38.322 0-69.5 31.178-69.5 69.5v33.457c-11.164 3.827-19.215 14.42-19.215 26.865v15.659c0 15.658 12.739 28.397 28.397 28.397h7.563c-.276 26.065 9.723 53.728 31.366 69.707v29.976l-43.124 14.756c-3.92 1.341-5.909 5.571-4.668 9.523 1.501 4.779 5.704 5.896 9.523 4.668l20.023-6.852v54.308c0 6.099 6.853 9.182 11.41 6.4l24.427-14.924 10.546 18.754-14.535 137.107h-63.439v-113.793c0-4.143-3.357-7.5-7.5-7.5s-7.5 3.357-7.5 7.5v113.796h-37.078v-148.91c0-14.423 9.174-27.252 22.826-31.923l9.89-3.38c3.919-1.339 6.011-5.603 4.671-9.522s-5.605-6.014-9.522-4.671l-9.892 3.38c-19.722 6.747-32.973 25.28-32.973 46.116v156.41c0 4.143 3.357 7.5 7.5 7.5h321.59c4.143 0 7.5-3.357 7.5-7.5v-71.35c0-4.143-3.357-7.5-7.5-7.5s-7.5 3.357-7.5 7.5v63.85h-42.407v-113.796c0-4.143-3.357-7.5-7.5-7.5s-7.5 3.357-7.5 7.5v113.796h-58.112l-14.535-137.107 10.546-18.754 24.427 14.924c4.556 2.785 11.41-.307 11.41-6.4v-54.309l60.843 20.814c13.653 4.671 22.827 17.5 22.827 31.923v52.37c0 4.143 3.357 7.5 7.5 7.5s7.5-3.357 7.5-7.5v-52.37c.001-20.837-13.249-39.37-32.971-46.118zm-98.968-27.029-36.354 27.373-36.355-27.374v-22.996c20.088 8.739 52.622 8.739 72.71 0v22.997zm67.352-129.767c0 7.388-6.01 13.397-13.397 13.397h-7.561v-42.454h7.561c7.388 0 13.397 6.01 13.397 13.397zm-188.197-75.981c0-30.052 24.448-54.5 54.5-54.5h62.373c30.052 0 54.5 24.448 54.5 54.5v23.287c-17.184-18.232-45.248-27.765-67.006-9.185-10.513 8.98-25.834 9.051-36.418.181-21.493-18.107-50.393-8.292-67.949 9.068zm1.743 89.379h-7.561c-7.388 0-13.397-6.01-13.397-13.397v-15.659c0-7.388 6.01-13.397 13.397-13.397h7.561zm15.002 22.734v-83.224c11.429-9.904 28.589-14.045 41.554-3.123 16.233 13.61 39.705 13.5 55.811-.257 11.622-9.926 27.115-6.889 38.126 1.26v85.345c-.001 82.331-135.491 82.331-135.491-.001zm13.121 108.925 9.401-3.191 31.896 24.017-41.298 25.231v-46.057zm65.769 60.569h-22.289l-9.835-17.489 20.979-12.815 20.979 12.815zm-33.838 146.197 13.909-131.196h17.568l13.908 131.196zm77.318-160.709-41.297-25.231 31.896-24.017 9.4 3.191v46.057z"/><path d="m136.44 154.746c4.143 0 7.5-3.357 7.5-7.5v-9.844c0-4.143-3.357-7.5-7.5-7.5s-7.5 3.357-7.5 7.5v9.844c0 4.143 3.357 7.5 7.5 7.5z"/><path d="m201.057 154.746c4.143 0 7.5-3.357 7.5-7.5v-9.844c0-4.143-3.357-7.5-7.5-7.5s-7.5 3.357-7.5 7.5v9.844c0 4.143 3.358 7.5 7.5 7.5z"/><path d="m168.823 214.338c14.507 0 26.309-11.802 26.309-26.309 0-4.143-3.357-7.5-7.5-7.5s-7.5 3.357-7.5 7.5c0 6.235-5.073 11.309-11.309 11.309s-11.309-5.073-11.309-11.309c0-4.143-3.357-7.5-7.5-7.5s-7.5 3.357-7.5 7.5c0 14.507 11.802 26.309 26.309 26.309z"/><path d="m511.777 181.733c0-48.925-34.907-90.808-83.003-99.588-4.067-.741-7.98 1.955-8.725 6.031-.744 4.074 1.956 7.98 6.031 8.725 40.964 7.479 70.696 43.156 70.696 84.832 0 47.548-38.688 86.23-86.24 86.23-47.547 0-86.229-38.683-86.229-86.23 0-42.187 30.153-77.937 71.697-85.006 4.084-.694 6.831-4.568 6.136-8.651-.694-4.084-4.569-6.83-8.651-6.136-23.264 3.959-44.568 16.098-59.989 34.181-15.601 18.293-24.192 41.595-24.192 65.612 0 53.297 41.402 97.104 93.733 100.953v12.914h-11.309c-4.143 0-7.5 3.357-7.5 7.5v104.722c0 13.393 10.896 24.289 24.289 24.289h4.038c13.393 0 24.289-10.896 24.289-24.289v-104.722c0-4.143-3.357-7.5-7.5-7.5h-11.308v-12.914c52.334-3.853 93.737-47.658 93.737-100.953zm-89.929 226.088c0 5.122-4.167 9.289-9.289 9.289h-4.038c-5.122 0-9.289-4.167-9.289-9.289v-97.221h22.616z"/><path d="m344.37 181.73c0 36.487 29.685 66.172 66.171 66.172s66.17-29.685 66.17-66.172c0-36.486-29.684-66.17-66.17-66.17s-66.171 29.684-66.171 66.17zm66.171-51.169c28.215 0 51.17 22.955 51.17 51.17 0 28.216-22.955 51.172-51.17 51.172-28.216 0-51.171-22.956-51.171-51.172 0-28.215 22.955-51.17 51.171-51.17z"/></g></g></svg>